Coordinates
version=1
nRows=24
nColumns=22
inDegrees=yes

Units are S.I. units (second, meters, Newtons, ...)
If the header above contains a line with 'inDegrees', this indicates whether rotational values are in degrees (yes) or radians (no).

endheader
time	pelvis_tilt	pelvis_list	pelvis_rotation	pelvis_tx	pelvis_ty	pelvis_tz	hip_flexion_r	hip_adduction_r	hip_rotation_r	knee_angle_r	ankle_angle_r	subtalar_angle_r	hip_flexion_l	hip_adduction_l	hip_rotation_l	knee_angle_l	ankle_angle_l	subtalar_angle_l	lumbar_extension	lumbar_bending	lumbar_rotation
      5.56000000	     -1.79615443	      1.52778019	    292.21548081	     -0.57951107	      0.94010673	      0.73406110	     19.09808031	     -4.57770914	      0.13138096	    -70.02171219	      4.89646663	      9.53708803	     18.57281123	     11.36092208	      3.77345275	    -23.06562044	      6.12771822	    -10.13901799	     -6.21537668	     -1.50050304	     -2.66560039
      5.57000000	     -1.65072488	      1.36736295	    293.39419986	     -0.57401767	      0.94133183	      0.74104177	     20.07424492	     -4.71107527	      0.26910922	    -70.04044150	      5.83579658	      8.55422868	     17.33652408	     11.80531845	      4.96528097	    -22.51955015	      6.58381745	     -9.77830702	     -6.31800499	     -1.59421849	     -3.08022060
      5.58000000	     -1.51931851	      1.21147227	    294.55045659	     -0.56862037	      0.94246408	      0.74791995	     21.01302692	     -4.80287768	      0.46073764	    -69.85495217	      6.68832633	      7.60838387	     16.10507580	     12.19236516	      6.18933894	    -21.97145336	      7.00686703	     -9.43166861	     -6.41985948	     -1.68116658	     -3.44616190
      5.59000000	     -1.37658082	      1.06564357	    295.65748109	     -0.56339493	      0.94345413	      0.75472293	     21.91580682	     -4.86112930	      0.73614374	    -69.48610887	      7.53115943	      6.52475436	     14.91374592	     12.53194218	      7.32328962	    -21.47946013	      7.54338214	     -9.06455342	     -6.53363386	     -1.79951216	     -3.75421306
      5.60000000	     -1.25175770	      0.91367382	    296.75549010	     -0.55827952	      0.94437270	      0.76142480	     22.76540185	     -4.85647622	      1.05547778	    -68.92099386	      8.28251053	      5.62847981	     13.73567871	     12.81177686	      8.49579620	    -21.00883858	      8.02111993	     -8.73309187	     -6.65969924	     -1.90479931	     -4.03442069
      5.61000000	     -1.12950116	      0.77309292	    297.83501572	     -0.55329673	      0.94516642	      0.76803822	     23.58205700	     -4.81410787	      1.41631867	    -68.18883522	      9.01032689	      4.77183152	     12.59857382	     13.04409017	      9.61511199	    -20.57617261	      8.51980162	     -8.40465568	     -6.79164293	     -2.02214406	     -4.30375696
      5.62000000	     -1.01715442	      0.63542761	    298.90767663	     -0.54842733	      0.94587306	      0.77455767	     24.35046097	     -4.71635367	      1.82038503	    -67.27944026	      9.67391733	      4.06349404	     11.49972435	     13.23067650	     10.72940667	    -20.18941436	      8.98173284	     -8.11881414	     -6.93212675	     -2.13815755	     -4.56294931
      5.63000000	     -0.92189984	      0.50375456	    299.98216090	     -0.54363929	      0.94648841	      0.78098865	     25.07633674	     -4.56565077	      2.25524103	    -66.20384310	     10.25719653	      3.52460656	     10.44313106	     13.37079736	     11.83715531	    -19.84231135	      9.37448479	     -7.89733889	     -7.07222939	     -2.24306262	     -4.82974475
      5.64000000	     -0.82495826	      0.37573327	    301.04375828	     -0.53893443	      0.94701235	      0.78737502	     25.74955777	     -4.37615201	      2.73268163	    -64.97853602	     10.77761469	      3.03952338	      9.42098262	     13.47624984	     12.87472489	    -19.53563263	      9.76364927	     -7.72654437	     -7.21923815	     -2.35579254	     -5.09290329
      5.65000000	     -0.73476538	      0.25222037	    302.09833605	     -0.53429618	      0.94744883	      0.79371360	     26.37333880	     -4.14361780	      3.24972269	    -63.61033587	     11.21049369	      2.65626749	      8.43611868	     13.54772288	     13.86381456	    -19.26710477	     10.10706761	     -7.63987481	     -7.36673179	     -2.46560585	     -5.35747884
      5.66000000	     -0.66847097	      0.13469525	    303.15125255	     -0.52969213	      0.94780826	      0.80000121	     26.95218956	     -3.86257979	      3.79449038	    -62.09998456	     11.52701155	      2.45545947	      7.48959004	     13.57406318	     14.81639734	    -19.01628602	     10.36406834	     -7.65722165	     -7.50051070	     -2.55224588	     -5.63207593
      5.67000000	     -0.61238382	      0.02135727	    304.19198041	     -0.52512925	      0.94808817	      0.80624766	     27.47992758	     -3.54702029	      4.37453035	    -60.46064196	     11.74834690	      2.37410823	      6.57813536	     13.57107559	     15.72601583	    -18.79530462	     10.57807018	     -7.76870086	     -7.63140709	     -2.63002048	     -5.89961954
      5.68000000	     -0.56408811	     -0.09711842	    305.20960945	     -0.52060032	      0.94831205	      0.81246143	     27.94257616	     -3.19417332	      4.99694199	    -58.69317261	     11.87052730	      2.41617076	      5.68673553	     13.53996801	     16.61046368	    -18.59927984	     10.74446776	     -7.98346377	     -7.77056199	     -2.69495710	     -6.13294871
      5.69000000	     -0.53262033	     -0.20677219	    306.21580698	     -0.51604974	      0.94845897	      0.81863722	     28.35193803	     -2.82670928	      5.63468189	    -56.79825302	     11.90090025	      2.59184012	      4.82683498	     13.48399482	     17.47012380	    -18.42105478	     10.87872758	     -8.26518702	     -7.89262060	     -2.74055975	     -6.36548841
      5.70000000	     -0.51646505	     -0.30563958	    307.20540427	     -0.51148072	      0.94852132	      0.82476914	     28.70944833	     -2.45569501	      6.28064417	    -54.77987937	     11.85173147	      2.87634676	      4.00453038	     13.40925161	     18.31277841	    -18.27241864	     11.01968940	     -8.56679876	     -8.00011005	     -2.77269414	     -6.57719963
      5.71000000	     -0.50820141	     -0.39534546	    308.17611885	     -0.50687945	      0.94850563	      0.83085451	     29.00834973	     -2.09748376	      6.92431140	    -52.64027854	     11.73391497	      3.25852998	      3.21618406	     13.32058420	     19.12281853	    -18.15445520	     11.19545088	     -8.85360890	     -8.09940818	     -2.79516763	     -6.76645219
      5.72000000	     -0.50148050	     -0.47072431	    309.12175251	     -0.50225464	      0.94840419	      0.83689840	     29.25144157	     -1.76560367	      7.56266165	    -50.38412935	     11.56491706	      3.73700639	      2.46580832	     13.22356410	     19.87237157	    -18.06482574	     11.41521324	     -9.10332015	     -8.18949865	     -2.81833427	     -6.93065611
      5.73000000	     -0.50550060	     -0.53097631	    310.05290768	     -0.49760043	      0.94821264	      0.84290219	     29.43710847	     -1.46790718	      8.16269642	    -48.00237510	     11.39128762	      4.20725615	      1.76060671	     13.11004404	     20.56321114	    -18.00269899	     11.65063600	     -9.28284990	     -8.26333809	     -2.83538788	     -7.09301111
      5.74000000	     -0.49475979	     -0.57868801	    310.95120598	     -0.49294037	      0.94794937	      0.84889026	     29.55491379	     -1.21218333	      8.75275781	    -45.51192170	     11.21562430	      4.74378513	      1.07018846	     12.99805886	     21.19936605	    -17.94718062	     11.87669621	     -9.46698693	     -8.34164112	     -2.87073904	     -7.22611314
      5.75000000	     -0.48509645	     -0.61026753	    311.83390823	     -0.48824030	      0.94759083	      0.85484496	     29.61596275	     -0.99983206	      9.30793571	    -42.91890145	     11.04768573	      5.23810464	      0.40931012	     12.88229909	     21.80201402	    -17.90648663	     12.07837827	     -9.66302526	     -8.40790453	     -2.90568838	     -7.35901898
      5.76000000	     -0.46080051	     -0.63150878	    312.68770186	     -0.48351015	      0.94716759	      0.86082889	     29.60694393	     -0.82739290	      9.84665904	    -40.23885118	     10.91419672	      5.75010087	     -0.25731388	     12.76746795	     22.39163682	    -17.85287390	     12.22583935	     -9.90992879	     -8.47409339	     -2.95966394	     -7.46619823
      5.77000000	     -0.42910850	     -0.64614570	    313.52617107	     -0.47871836	      0.94667689	      0.86684043	     29.53202496	     -0.69122860	     10.35435194	    -37.49118862	     10.81335650	      6.25554037	     -0.93100553	     12.64763285	     22.98673672	    -17.78822910	     12.32679366	    -10.22061801	     -8.53680472	     -3.01833541	     -7.57144583
      5.78000000	     -0.39926461	     -0.65721865	    314.35923838	     -0.47383388	      0.94612184	      0.87289934	     29.39595755	     -0.58352700	     10.81831141	    -34.69605118	     10.75095306	      6.70621532	     -1.61699666	     12.51068397	     23.59277868	    -17.70039960	     12.39244257	    -10.56370598	     -8.58495459	     -3.06946064	     -7.69881440
      5.79000000	     -0.37081022	     -0.65752522	    315.16615768	     -0.46889084	      0.94548688	      0.87900564	     29.22482906	     -0.49414418	     11.26978542	    -31.89842127	     10.71959098	      7.25978167	     -2.30190247	     12.36989806	     24.21119433	    -17.60479917	     12.39355136	    -11.05771569	     -8.61619739	     -3.12408037	     -7.79553960
